<?xml version="1.0" encoding="utf-8"?>
<!-- Generator: Adobe Illustrator 23.0.4, SVG Export Plug-In . SVG Version: 6.00 Build 0)  -->
<svg version="1.1" id="Layer_1" xmlns="http://www.w3.org/2000/svg" xmlns:xlink="http://www.w3.org/1999/xlink" x="0px" y="0px"
	 viewBox="0 0 37.3 24" style="enable-background:new 0 0 37.3 24;" xml:space="preserve">
<style type="text/css">
	.st0{fill:#FFFFFF;}
</style>
<g>
	<g transform="translate(50 50) scale(0.69 0.69) rotate(0) translate(-50 -50)">
		<g>
			<path class="st0" d="M31.6-5.3c0-3.1-2.6-5.7-5.7-5.7H4.1c-1.5-1.5-3.5-2.3-5.6-2.3c-4.4,0-8,3.6-8,8s3.6,8,8,8
				c2.1,0,4.1-0.8,5.6-2.3h21.8C29.1,0.4,31.6-2.1,31.6-5.3z M-7.1-5.3c0-3.1,2.6-5.7,5.7-5.7c1.6,0,3.2,0.7,4.2,1.9
				C3-8.8,3.3-8.7,3.7-8.7h22.3c1.9,0,3.4,1.5,3.4,3.4s-1.5,3.4-3.4,3.4H3.7C3.3-1.8,3-1.7,2.8-1.5C1.7-0.3,0.2,0.4-1.4,0.4
				C-4.6,0.4-7.1-2.1-7.1-5.3z"/>
		</g>
		<g>
			<path class="st0" d="M1.8-4.1h12.7c0.6,0,1.1-0.5,1.1-1.1s-0.5-1.1-1.1-1.1H1.8C1.3-7.7,0.1-8.7-1.4-8.7c-1.9,0-3.4,1.5-3.4,3.4
				s1.5,3.4,3.4,3.4C0.1-1.8,1.3-2.8,1.8-4.1z"/>
		</g>
		<g>
			<path class="st0" d="M-22.5-11c0,0.6,0.5,1.1,1.1,1.1c0.6,0,1.1-0.5,1.1-1.1c0-0.6-0.5-1.1-1.1-1.1C-22-12.1-22.5-11.6-22.5-11z
				 M-21-11c0,0.2-0.2,0.4-0.4,0.4c-0.2,0-0.4-0.2-0.4-0.4s0.2-0.4,0.4-0.4C-21.1-11.4-21-11.2-21-11z"/>
		</g>
		<g>
			<path class="st0" d="M-16.7-5.3c-1.8,0-3.3-1.5-3.3-3.3c0-1.8,1.5-3.3,3.3-3.3c0.9,0,1.7,0.3,2.3,1c0.3,0.3,0.3,0.7,0,0.9
				c-0.3,0.3-0.7,0.3-0.9,0c-0.4-0.4-0.9-0.6-1.4-0.6c-1.1,0-2,0.9-2,2s0.9,2,2,2c0.4,0,0.8-0.1,1.2-0.4c0.3-0.2,0.7-0.2,0.9,0.1
				c0.2,0.3,0.2,0.7-0.1,0.9C-15.3-5.5-16-5.3-16.7-5.3z"/>
		</g>
	</g>
</g>
</svg>
